<?xml version="1.0" encoding="UTF-8"?>
<svg id="Layer_1" xmlns="http://www.w3.org/2000/svg" version="1.1" xmlns:xlink="http://www.w3.org/1999/xlink" viewBox="0 0 124 101">
  <!-- Generator: Adobe Illustrator 29.1.0, SVG Export Plug-In . SVG Version: 2.1.0 Build 142)  -->
  <defs>
    <style>
      .st0 {
        fill: #fff;
      }

      .st1 {
        fill: url(#linear-gradient1);
      }

      .st2 {
        fill: #f99d27;
        fill-rule: evenodd;
      }

      .st3 {
        fill: #e1251b;
      }

      .st4 {
        fill: #ee2e24;
      }

      .st5 {
        fill: url(#linear-gradient);
      }
    </style>
    <linearGradient id="linear-gradient" x1="16" y1="42.4" x2="110.7" y2="-12.2" gradientUnits="userSpaceOnUse">
      <stop offset=".6" stop-color="#ee2e24"/>
      <stop offset=".7" stop-color="#d2241b"/>
      <stop offset=".8" stop-color="#a2150c"/>
      <stop offset=".9" stop-color="#850b03"/>
      <stop offset="1" stop-color="#7a0800"/>
    </linearGradient>
    <linearGradient id="linear-gradient1" x1="20.7" y1="23.3" x2="17.2" y2="14.3" gradientUnits="userSpaceOnUse">
      <stop offset="0" stop-color="#ee2e24"/>
      <stop offset=".2" stop-color="#d0281e"/>
      <stop offset=".5" stop-color="#a02015"/>
      <stop offset=".8" stop-color="#831b10"/>
      <stop offset=".9" stop-color="#781a0e"/>
      <stop offset="1" stop-color="#781a0e"/>
    </linearGradient>
  </defs>
  <g>
    <g>
      <path class="st0" d="M56.6,75c0,.5,0,1,.2,1.3.1.3.3.7.5,1,0,.1.1.2.1.3,0,.2,0,.3-.3.4l-.9.6c-.1,0-.3.1-.4.1s-.3,0-.4-.2c-.2-.2-.4-.4-.5-.7-.1-.2-.3-.5-.4-.8-1.1,1.3-2.5,2-4.2,2s-2.2-.3-2.9-1c-.7-.7-1.1-1.6-1.1-2.8s.4-2.2,1.3-2.9c.9-.7,2-1.1,3.5-1.1s1,0,1.5.1c.5,0,1.1.2,1.6.3v-1.1c0-1.1-.2-1.9-.7-2.3-.5-.4-1.2-.7-2.3-.7s-1,0-1.5.2c-.5.1-1,.3-1.5.5-.2.1-.4.2-.5.2-.1,0-.2,0-.2,0-.2,0-.3-.2-.3-.5v-.7c0-.2,0-.4.1-.5,0-.1.2-.2.4-.3.5-.3,1.1-.5,1.8-.7.7-.2,1.4-.3,2.2-.3,1.7,0,3,.4,3.7,1.2.8.8,1.2,2,1.2,3.5v4.7ZM50.8,77.2c.5,0,1,0,1.5-.3.5-.2,1-.5,1.4-.9.2-.3.4-.6.5-.9,0-.3.1-.8.1-1.2v-.6c-.4-.1-.9-.2-1.3-.2-.5,0-.9,0-1.3,0-1,0-1.7.2-2.1.6-.5.4-.7.9-.7,1.7s.2,1.2.5,1.5c.4.3.9.5,1.5.5ZM62.3,78.7c-.3,0-.4,0-.6-.1-.1,0-.2-.3-.3-.6l-3.4-11.1c0-.3-.1-.5-.1-.6,0-.2.1-.4.4-.4h1.4c.3,0,.5,0,.6.1.1,0,.2.3.3.6l2.4,9.5,2.2-9.5c0-.3.2-.5.3-.6.1,0,.3-.1.6-.1h1.2c.3,0,.5,0,.6.1.1,0,.2.3.3.6l2.3,9.6,2.5-9.6c0-.3.2-.5.3-.6.1,0,.3-.1.6-.1h1.3c.2,0,.4.1.4.4s0,.1,0,.2c0,0,0,.2-.1.4l-3.5,11.1c0,.3-.2.5-.3.6-.1,0-.3.1-.6.1h-1.2c-.3,0-.5,0-.6-.2-.1-.1-.2-.3-.3-.6l-2.2-9.2-2.2,9.2c0,.3-.2.5-.3.6-.1.1-.3.2-.6.2h-1.2ZM80.7,79.1c-.8,0-1.5,0-2.2-.3-.7-.2-1.3-.4-1.7-.6-.2-.1-.4-.3-.4-.4,0-.1,0-.3,0-.4v-.7c0-.3.1-.5.3-.5s.2,0,.3,0c0,0,.2,0,.4.2.5.2,1,.4,1.6.5.6.1,1.1.2,1.7.2.9,0,1.6-.2,2.1-.5.5-.3.7-.8.7-1.4s-.1-.7-.4-1c-.3-.3-.7-.5-1.4-.8l-2.1-.7c-1.1-.3-1.8-.8-2.3-1.5-.5-.6-.7-1.3-.7-2.1s.1-1.1.4-1.6c.3-.5.6-.9,1-1.2.4-.3.9-.6,1.5-.7.6-.2,1.2-.3,1.8-.3s.6,0,1,0c.3,0,.6,0,.9.2.3,0,.6.1.8.2.3,0,.5.2.6.3.2.1.3.2.4.4,0,.1.1.3.1.5v.7c0,.3-.1.5-.3.5s-.3,0-.6-.2c-.8-.4-1.7-.6-2.8-.6s-1.5.1-1.9.4c-.5.3-.7.7-.7,1.3s.1.7.4,1c.3.3.8.5,1.6.8l2,.7c1,.3,1.8.8,2.2,1.4.4.6.7,1.3.7,2s-.1,1.2-.4,1.7c-.3.5-.6.9-1,1.3-.4.4-1,.6-1.6.8-.6.2-1.3.3-2,.3Z"/>
      <g>
        <path class="st2" d="M83.4,86.1c-4.7,3.5-11.6,5.3-17.4,5.3s-15.7-3.1-21.3-8.1c-.4-.4,0-.9.5-.6,6.1,3.5,13.6,5.7,21.3,5.7s11-1.1,16.3-3.3c.8-.3,1.5.5.7,1.1Z"/>
        <path class="st2" d="M85.4,83.9c-.6-.8-4-.4-5.5-.2-.5,0-.5-.3-.1-.6,2.7-1.9,7.1-1.3,7.6-.7.5.6-.1,5.1-2.7,7.2-.4.3-.8.2-.6-.3.6-1.4,1.8-4.6,1.2-5.4Z"/>
      </g>
    </g>
    <g>
      <path class="st0" d="M4.4,67.7c0,1.4-.5,1.6-2,1.6h-.8v1.8c0,0,0,.1-.1.1h-.9c0,0-.1,0-.1-.1v-5c0,0,0,0,.1,0,.6,0,1.2,0,1.8,0,1.5,0,2,.4,2,1.7ZM1.6,66.9v1.6h.7c.8,0,1-.1,1-.8s-.2-.8-1-.8h-.7Z"/>
      <path class="st0" d="M10.2,68.7c0,2-.5,2.6-2.2,2.6s-2.2-.6-2.2-2.6.5-2.7,2.2-2.7,2.2.6,2.2,2.7ZM6.9,68.7c0,1.3.2,1.7,1.1,1.7s1.1-.4,1.1-1.7-.2-1.7-1.1-1.7-1.1.4-1.1,1.7Z"/>
      <path class="st0" d="M18.6,66c0,0,.1,0,0,.1l-.8,4.4c-.1.7-.3.8-1,.8s-.9,0-1.1-.8l-.6-2.6-.6,2.6c-.2.7-.3.8-1.1.8s-.9,0-1-.8l-.8-4.4c0,0,0-.1,0-.1h.9c0,0,0,0,0,.1l.7,3.9c0,.2,0,.2.2.2s.1,0,.2-.2l.9-3.7c0,0,0-.1.1-.1h.8c0,0,.1,0,.1.1l.9,3.7c0,.2,0,.2.2.2s.1,0,.2-.2l.7-3.9c0,0,0-.1.1-.1h.9Z"/>
      <path class="st0" d="M23.8,66c0,0,.1,0,.1.1v.7c0,0,0,.1-.1.1h-2.4v1.3h2.2c0,0,.1,0,.1.1v.7c0,0,0,.1-.1.1h-2.2v1.2h2.4c0,0,.1,0,.1.1v.7c0,0,0,.1-.1.1h-3.4c0,0-.1,0-.1-.1v-5c0,0,0-.1.1-.1h3.4Z"/>
      <path class="st0" d="M29.5,67.7c0,1-.3,1.4-1,1.6l1.1,1.8c0,0,0,.1,0,.1h-.9c-.2,0-.2,0-.3-.1l-1.1-1.7h-.6v1.8c0,0,0,.1-.1.1h-.9c0,0-.1,0-.1-.1v-5c0,0,0,0,.1,0,.6,0,1.2,0,1.8,0,1.5,0,2,.4,2,1.7ZM26.7,66.9v1.6h.7c.8,0,1-.1,1-.8s-.2-.8-1-.8h-.7Z"/>
      <path class="st0" d="M34.7,66c0,0,.1,0,.1.1v.7c0,0,0,.1-.1.1h-2.4v1.3h2.2c0,0,.1,0,.1.1v.7c0,0,0,.1-.1.1h-2.2v1.2h2.4c0,0,.1,0,.1.1v.7c0,0,0,.1-.1.1h-3.4c0,0-.1,0-.1-.1v-5c0,0,0-.1.1-.1h3.4Z"/>
      <path class="st0" d="M40.8,68.7c0,1.9-.6,2.6-2.2,2.6s-1.4,0-2,0c0,0-.1,0-.1,0v-5c0,0,0,0,.1,0,.6,0,1.3,0,2,0,1.6,0,2.2.8,2.2,2.7ZM37.6,66.9v3.5h1c.8,0,1.1-.5,1.1-1.7s-.3-1.7-1.2-1.7h-.9Z"/>
      <path class="st0" d="M34.8,74.9c0,.7-.2,1.1-.8,1.2h0c.7.1.9.5.9,1.2,0,1.1-.6,1.4-1.8,1.4s-1.5,0-2,0c0,0-.1,0-.1,0v-5c0,0,0,0,.1,0,.6,0,1.3,0,1.9,0,1.3,0,1.9.4,1.9,1.5ZM32,74.4v1.3h.7c.8,0,1,0,1-.7s-.3-.7-.9-.7h-.8ZM32,76.5v1.3h1c.6,0,.8-.1.8-.6s-.3-.7-.8-.7h-1Z"/>
      <path class="st0" d="M40.7,73.5c0,0,.1,0,0,.1l-1.9,3.4v1.6c0,0,0,.1-.1.1h-.9c0,0-.1,0-.1-.1v-1.6l-1.9-3.4c0-.1,0-.1,0-.1h1c.1,0,.1,0,.2.1l1.2,2.4,1.2-2.4c0,0,0-.1.2-.1h1Z"/>
    </g>
  </g>
  <g>
    <g id="World_Challenge">
      <path class="st0" d="M19.4,42.4c.1,0,.1,0,.1.1l-2.1,5.5c-.4.9-.6,1-1.6,1s-1.3-.1-1.4-1l-.3-3.2-1.4,3.2c-.4.9-.6,1-1.7,1s-1.2-.1-1.2-1l-.2-5.5c0-.1,0-.1.2-.1h1.3c0,0,.1,0,.1.1l.2,4.9c0,.2,0,.3.2.3s.2,0,.3-.3l2.1-4.7c0-.1.1-.1.2-.1h1.1c0,0,.2,0,.2.1l.4,4.7c0,.2,0,.3.2.3s.2,0,.3-.3l1.9-4.9c0-.1,0-.1.2-.1h1.3Z"/>
      <path class="st0" d="M26,45.7c-.5,2.6-1.2,3.3-3.7,3.3s-2.9-.8-2.5-3.3c.5-2.6,1.2-3.4,3.7-3.4s2.9.8,2.5,3.4ZM21.3,45.7c-.3,1.7-.1,2.2,1.2,2.2s1.7-.5,1.9-2.2c.3-1.7.1-2.2-1.2-2.2s-1.7.5-2,2.2Z"/>
      <path class="st0" d="M33.1,44.6c-.2,1.3-.7,1.8-1.8,2l1.2,2.3c0,0,0,.2-.1.2h-1.2c-.2,0-.3,0-.4-.2l-1.2-2.2h-.9l-.4,2.3c0,.1,0,.1-.2.1h-1.2c-.1,0-.1,0-.1-.1l1.1-6.3c0,0,0-.1.2-.1.9,0,1.8,0,2.5,0,2.1,0,2.7.5,2.4,2.2ZM29.3,43.5l-.4,2.1h1c1.1,0,1.5-.1,1.6-1,.2-.9-.1-1.1-1.2-1.1h-1Z"/>
      <path class="st0" d="M36.2,42.4c0,0,.1,0,.1.1l-.9,5.3h3.1c0,0,.1,0,.1.1l-.2.9c0,0,0,.1-.2.1h-4.5c0,0-.1,0-.1-.1l1.1-6.3c0,0,0-.1.2-.1h1.2Z"/>
      <path class="st0" d="M45.7,45.7c-.4,2.4-1.4,3.3-3.7,3.3s-1.9,0-2.7,0c-.1,0-.1,0-.1-.1l1.1-6.3c0,0,0-.1.2-.1.9,0,1.8,0,2.8,0,2.2,0,2.9,1,2.5,3.4ZM41.6,43.5l-.8,4.4h1.4c1.2,0,1.7-.6,2-2.2.3-1.6,0-2.2-1.3-2.2h-1.3Z"/>
      <path class="st0" d="M54.8,42.5c.1,0,.2,0,.2.2v.7c-.1,0-.2.1-.3.1h-1.9c-1.3,0-1.6.5-1.9,2.2-.3,1.7-.2,2.2,1.1,2.2h1.9c0,0,.1,0,.1.1v.7c-.1.1-.2.2-.4.2-.5,0-1.1.1-1.9.1-2.4,0-2.9-.8-2.4-3.4.5-2.6,1.2-3.3,3.6-3.3s1.4,0,1.8.1Z"/>
      <path class="st0" d="M61.8,42.4c0,0,.1,0,.1.1l-1.1,6.3c0,0,0,.1-.2.1h-1.2c0,0-.1,0-.1-.1l.5-2.6h-3.1l-.5,2.6c0,0,0,.1-.2.1h-1.2c0,0-.1,0-.1-.1l1.1-6.3c0,0,0-.1.2-.1h1.2c0,0,.1,0,.1.1l-.5,2.6h3.1l.5-2.6c0,0,0-.1.2-.1h1.2Z"/>
      <path class="st0" d="M67.6,43.4l.7,5.5c0,.1,0,.1-.2.1h-1.2c0,0,0,0-.1-.1l-.2-1.8h-2.5l-.9,1.8c0,.1,0,.1-.2.1h-1.2c-.1,0-.1,0,0-.1l2.7-5.5c.5-.9.7-1,1.8-1s1.3,0,1.4,1ZM65.7,43.7l-1.1,2.3h1.9l-.3-2.3c0-.2,0-.2-.2-.2s-.2,0-.3.2Z"/>
      <path class="st0" d="M71.8,42.4c0,0,.1,0,.1.1l-.9,5.3h3.1c0,0,.1,0,.1.1l-.2.9c0,0,0,.1-.2.1h-4.5c0,0-.1,0-.1-.1l1.1-6.3c0,0,0-.1.2-.1h1.2Z"/>
      <path class="st0" d="M77.3,42.4c0,0,.1,0,.1.1l-.9,5.3h3.1c0,0,.1,0,.1.1l-.2.9c0,0,0,.1-.2.1h-4.5c0,0-.1,0-.1-.1l1.1-6.3c0,0,0-.1.2-.1h1.2Z"/>
      <path class="st0" d="M86.3,42.4c0,0,.1,0,.1.1l-.2.9c0,0,0,.1-.2.1h-3.4l-.3,1.6h3.1c0,0,.1,0,.1.1l-.2.9c0,0,0,.1-.2.1h-3.1l-.3,1.5h3.4c0,0,.1,0,.1.1l-.2.9c0,0,0,.1-.2.1h-4.8c0,0-.1,0-.1-.1l1.1-6.3c0,0,0-.1.2-.1h4.8Z"/>
      <path class="st0" d="M93.7,42.4c0,0,.1,0,.1.1l-1.1,6.3c0,0,0,.1-.2.1h-.9c-.2,0-.3,0-.4-.2l-2.4-4.1-.7,4.2c0,0,0,.1-.2.1h-1.2c0,0-.1,0-.1-.1l1.1-6.3c0,0,0-.1.2-.1h.9c.4,0,.4,0,.5.3l2.3,3.9.7-4c0,0,0-.1.2-.1h1.2Z"/>
      <path class="st0" d="M100.3,42.5c.1,0,.2,0,.2.2v.7c-.1,0-.2.1-.3.1h-2.1c-1.3,0-1.6.5-1.9,2.2-.3,1.7-.2,2.2,1.2,2.2h1.2l.4-2c0,0,0-.1.2-.1h1.1c0,0,.1,0,.1.1l-.4,2.4c0,.1,0,.2,0,.2-.3.4-1.5.5-2.6.5-2.4,0-2.9-.8-2.5-3.3.5-2.6,1.2-3.4,3.6-3.4s1.5,0,2,.1Z"/>
      <path class="st0" d="M107.1,42.4c0,0,.1,0,.1.1l-.2.9c0,0,0,.1-.2.1h-3.4l-.3,1.6h3.1c0,0,.1,0,.1.1l-.2.9c0,0,0,.1-.2.1h-3.1l-.3,1.5h3.4c0,0,.1,0,.1.1l-.2.9c0,0,0,.1-.2.1h-4.8c0,0-.1,0-.1-.1l1.1-6.3c0,0,0-.1.2-.1h4.8Z"/>
    </g>
    <g id="GT">
      <g>
        <g>
          <path class="st5" d="M58.4,35.9l21.9-21.7H26.5c-9.9,0-18.8,6-21.9,8.4,2-2,6.3-6.2,8.4-8.2,3.2-3.1,6.2-4.8,13.2-4.8h97.1l-2.9,2.9c-1.1,1.1-2.6,1.7-4.2,1.7h-20.4c-.2.2-16.9,16.8-18.5,18.3-2.2,2.2-5.2,3.4-8.5,3.4h-10.4Z"/>
          <path class="st4" d="M123.1,9.7l-2.8,2.8c-1.1,1.1-2.6,1.7-4.1,1.7h-20.5c-.2.2-16.9,16.8-18.5,18.3-2.2,2.2-5.2,3.3-8.4,3.3h-10.2l21.7-21.4.3-.3H26.5c-6.3,0-12.3,2.5-16.1,4.6-2.1,1.1-3.7,2.2-4.9,3.1,2.2-2.2,5.8-5.7,7.6-7.5,1.9-1.8,3.5-2.9,5.4-3.6,2-.8,4.5-1.1,7.8-1.1h96.9M123.5,9.5H26.2c-6.7,0-9.8,1.4-13.3,4.8-2.7,2.6-9.4,9.3-9.4,9.3h0s0,0,0,0c0,0,10.8-9.3,23-9.3h53.6l-21.9,21.7h10.6c3.2,0,6.3-1.2,8.6-3.4,1.6-1.6,18.5-18.3,18.5-18.3h20.4c1.6,0,3.1-.6,4.2-1.7l3.1-3h0Z"/>
        </g>
        <path class="st4" d="M66.5,18.9h-28c-1.7,0-3.3.7-4.5,1.9l-1.6,1.6h18.5c-6.8,6.7-7,6.8-14.4,6.8h-14.1l-6.9,6.8h28.5c2.9,0,6.4-1.1,8.8-3.5l13.8-13.6Z"/>
      </g>
      <path class="st1" d="M28.5,17.8c2.4-2.5,5.1-3.5,8.3-3.5h-10.3c-12.2,0-23,9.3-23,9.3l-1.6,1.6h19.3s4.5-4.5,7.3-7.3Z"/>
    </g>
  </g>
  <g id="EUROPE">
    <path class="st3" d="M5.3,52.6c0,0,.1,0,.1.1v.7c-.1,0-.2.1-.3.1h-2.7l-.2,1.3h2.5c0,0,.1,0,.1.1v.7c-.1,0-.2.1-.3.1h-2.5l-.2,1.2h2.7c0,0,.1,0,0,.1v.7c-.1,0-.2.1-.3.1H.6c0,0-.1,0,0-.1l.9-5.1c0,0,0-.1.1-.1h3.8Z"/>
    <path class="st3" d="M12.5,52.6c0,0,.1,0,0,.1l-.4,2.6c-.4,2.1-1,2.7-2.9,2.7s-2.3-.5-1.9-2.7l.5-2.6c0,0,0-.1.1-.1h1c0,0,.1,0,0,.1l-.4,2.6c-.3,1.4,0,1.7.9,1.7s1.3-.3,1.5-1.7l.4-2.6c0,0,0-.1.1-.1h1Z"/>
    <path class="st3" d="M19.3,54.3c-.2,1-.6,1.4-1.4,1.6l1,1.9c0,0,0,.1-.1.1h-1c-.2,0-.2,0-.3-.2l-.9-1.8h-.7l-.3,1.8c0,0,0,.1-.1.1h-1c0,0-.1,0,0-.1l.9-5.1c0,0,0,0,.1,0,.7,0,1.4,0,2,0,1.7,0,2.2.4,1.9,1.8ZM16.3,53.5l-.3,1.7h.8c.9,0,1.2-.1,1.3-.8.1-.7,0-.9-1-.9h-.8Z"/>
    <path class="st3" d="M26.4,55.3c-.4,2.1-1,2.7-2.9,2.7s-2.4-.6-2-2.7c.4-2.1,1-2.7,2.9-2.7s2.4.6,2,2.7ZM22.7,55.3c-.2,1.3,0,1.7,1,1.7s1.3-.4,1.6-1.7c.2-1.3.1-1.8-.9-1.8s-1.3.4-1.6,1.8Z"/>
    <path class="st3" d="M33.5,54.3c-.2,1.4-.9,1.7-2.5,1.7h-.9l-.3,1.8c0,0,0,.1-.1.1h-1c0,0-.1,0,0-.1l.9-5.1c0,0,0,0,.1,0,.7,0,1.4,0,2,0,1.7,0,2.2.4,1.9,1.8ZM30.5,53.5l-.3,1.7h.8c.9,0,1.2-.1,1.3-.8.1-.7,0-.9-1-.9h-.8Z"/>
    <path class="st3" d="M40.1,52.6c0,0,.1,0,.1.1v.7c-.1,0-.2.1-.3.1h-2.7l-.2,1.3h2.5c0,0,.1,0,.1.1v.7c-.1,0-.2.1-.3.1h-2.5l-.2,1.2h2.7c0,0,.1,0,0,.1v.7c-.1,0-.2.1-.3.1h-3.8c0,0-.1,0,0-.1l.9-5.1c0,0,0-.1.1-.1h3.8Z"/>
  </g>
</svg>