<svg xmlns="http://www.w3.org/2000/svg" width="1387" height="756" viewBox="0 0 1387 756">
<g>
<path d="M 328.20 659.57 C322.31,668.41 315.11,679.43 312.20,684.07 C306.07,693.80 306.32,691.82 313.06,677.00 C315.69,671.22 321.74,657.50 326.51,646.50 C338.04,619.92 348.33,597.43 359.12,575.27 C364.01,565.24 368.00,556.82 368.00,556.55 C368.00,555.13 422.68,445.65 434.70,423.00 C453.95,386.73 453.78,387.03 467.25,364.58 C505.72,300.44 532.82,269.64 565.35,253.07 C582.58,244.30 604.20,241.21 619.72,245.30 C632.69,248.72 644.20,255.88 655.33,267.44 C663.95,276.40 669.23,284.69 668.48,288.09 C668.15,289.60 664.35,299.09 660.04,309.17 C652.47,326.90 625.16,391.62 609.70,428.50 C597.49,457.60 596.06,461.47 597.41,461.79 C598.07,461.94 606.92,459.08 617.06,455.42 C627.20,451.77 640.45,447.04 646.50,444.91 C652.55,442.79 667.40,437.50 679.50,433.17 C691.60,428.83 715.67,420.24 733.00,414.08 C750.33,407.92 774.54,399.30 786.81,394.94 C840.86,375.70 872.61,363.04 890.00,353.81 C925.98,334.71 935.69,316.88 918.60,301.27 C908.58,292.11 890.91,285.04 866.50,280.41 C858.80,278.96 851.96,277.61 851.30,277.43 C850.05,277.09 846.57,271.10 847.24,270.43 C847.80,269.86 873.28,271.74 890.00,273.57 C897.97,274.45 911.03,276.47 919.00,278.07 C947.38,283.75 964.20,290.98 975.66,302.44 C981.71,308.49 983.09,310.52 984.54,315.48 C990.71,336.71 974.05,359.35 932.50,386.21 C923.49,392.04 898.14,406.18 888.87,410.55 L 885.23 412.26 L 881.43 408.06 C876.13,402.19 871.39,400.00 864.01,400.00 C856.83,400.00 851.74,401.91 847.18,406.30 C842.22,411.09 839.84,415.53 839.13,421.31 L 838.50 426.50 L 830.46 427.17 C815.66,428.40 804.67,434.01 794.07,445.74 C789.76,450.52 786.90,452.74 783.34,454.04 C780.68,455.02 770.40,458.83 760.50,462.51 C713.02,480.18 659.76,496.09 604.50,509.10 C519.03,529.23 473.99,543.83 435.96,563.74 C390.92,587.32 355.05,619.23 328.20,659.57 ZM 1036.46 696.56 C1032.43,697.77 1015.70,697.99 929.59,697.91 C823.74,697.82 823.27,697.80 815.44,693.73 C804.57,688.09 795.25,673.94 794.26,661.59 L 793.73 655.00 L 779.86 655.00 C772.24,655.00 766.00,654.60 766.00,654.12 C766.00,653.64 768.92,644.83 772.50,634.54 C776.08,624.25 779.00,615.64 779.00,615.40 C779.00,615.16 769.89,615.08 758.75,615.23 L 738.50 615.50 L 733.26 631.00 C730.37,639.53 727.30,648.41 726.42,650.75 L 724.83 655.00 L 704.92 655.00 C691.80,655.00 685.00,654.64 685.00,653.96 C685.00,653.39 687.99,644.39 691.64,633.96 L 698.29 615.00 L 738.60 615.00 L 751.87 576.00 L 711.46 576.00 L 706.57 590.25 C703.88,598.09 700.82,606.86 699.77,609.75 L 697.86 615.00 L 677.93 615.00 C666.97,615.00 658.00,614.62 658.00,614.16 C658.00,612.18 668.22,584.40 669.31,583.42 C669.96,582.82 673.42,581.02 677.00,579.42 C682.91,576.77 684.77,576.45 697.48,576.00 L 711.45 575.50 L 713.98 568.69 L 716.50 561.88 L 729.50 555.13 C736.65,551.42 747.56,545.39 753.75,541.74 C759.94,538.09 765.00,535.43 765.00,535.83 C765.00,536.23 762.12,545.18 758.60,555.71 C755.08,566.24 752.45,575.12 752.76,575.43 C753.08,575.74 762.26,576.00 773.17,576.00 L 793.00 576.00 L 793.01 531.75 C793.02,481.64 793.60,473.59 797.91,464.38 C801.27,457.20 808.50,448.95 814.47,445.49 C819.89,442.34 829.45,440.00 836.89,440.00 L 843.00 440.00 L 843.00 453.71 L 835.82 454.38 C826.53,455.24 821.51,458.00 817.54,464.42 L 814.50 469.34 L 814.50 655.50 L 816.80 660.49 C819.59,666.55 822.32,669.59 827.21,672.10 C830.76,673.92 834.16,674.00 905.81,674.00 L 980.70 674.00 L 984.02 671.75 C985.85,670.51 992.07,664.33 997.84,658.00 C1003.61,651.67 1014.90,639.36 1022.92,630.64 C1030.94,621.92 1038.85,612.72 1040.50,610.19 L 1043.50 605.60 L 1043.77 539.62 L 1043.77 538.86 C1044.03,477.10 1044.06,469.01 1040.31,463.50 C1039.73,462.64 1039.06,461.85 1038.29,460.93 C1034.48,456.40 1030.94,455.03 1022.56,454.82 L 1015.00 454.63 L 1015.00 440.00 L 1021.79 440.00 C1043.10,440.00 1058.17,451.79 1063.49,472.64 C1064.87,478.04 1065.03,490.02 1064.78,572.14 L 1064.50 665.50 L 1062.29 671.36 C1057.83,683.16 1047.50,693.24 1036.46,696.56 ZM 1073.74 438.44 C1071.07,442.87 1068.58,446.80 1068.20,447.18 C1067.81,447.55 1064.47,444.97 1060.77,441.45 C1051.65,432.78 1039.74,427.05 1030.75,427.01 C1029.24,427.01 1028.00,426.73 1028.00,426.40 C1028.00,426.08 1030.42,423.04 1033.38,419.65 C1058.70,390.70 1071.08,355.95 1065.49,329.53 C1059.48,301.17 1035.35,281.18 993.00,269.49 L 984.50 267.15 L 1098.00 267.00 L 1098.00 311.45 C1098.00,360.40 1097.32,369.39 1091.93,391.95 C1088.33,407.02 1080.32,427.48 1073.74,438.44 ZM 948.00 525.00 L 948.00 643.00 L 922.00 643.00 L 922.00 601.42 C922.00,578.55 921.66,560.01 921.25,560.22 C914.42,563.74 899.34,568.38 898.62,567.18 C898.40,566.81 897.46,562.67 896.54,558.00 C895.62,553.33 894.66,548.75 894.40,547.84 C894.03,546.56 894.86,546.03 898.05,545.49 C905.72,544.20 917.41,537.47 923.30,530.96 L 928.69 525.00 ZM 514.00 397.97 C514.00,398.93 521.59,397.00 539.50,391.51 C545.55,389.65 554.39,386.96 559.14,385.54 L 567.79 382.94 L 570.33 376.22 C571.73,372.52 577.19,358.92 582.45,346.00 C588.81,330.39 591.60,322.42 590.76,322.26 C590.07,322.14 578.32,325.52 564.66,329.79 L 539.82 337.55 L 528.85 362.52 C516.71,390.16 514.00,396.64 514.00,397.97 ZM 432.00 474.49 C432.00,475.42 433.60,475.04 455.12,468.96 C486.81,460.00 485.75,460.42 487.97,456.06 C490.85,450.42 512.00,401.82 512.00,400.84 C512.00,399.38 510.01,399.83 486.74,406.65 L 463.97 413.32 L 452.36 435.41 C445.98,447.56 438.78,461.21 436.38,465.74 C433.97,470.27 432.00,474.21 432.00,474.49 ZM 1022.80 190.60 C1017.38,193.41 1009.70,191.97 1004.66,187.19 C999.01,181.83 999.00,181.76 999.02,147.30 C999.03,116.25 999.09,115.41 1001.27,111.58 C1005.30,104.49 1016.07,100.90 1022.80,104.40 C1026.16,106.15 1029.27,109.53 1031.38,113.70 C1033.74,118.37 1033.80,175.15 1031.45,180.77 C1029.62,185.15 1026.54,188.65 1022.80,190.60 ZM 903.93 190.54 C896.03,194.62 884.44,189.63 881.06,180.68 C880.40,178.92 880.00,166.31 880.00,146.77 L 880.00 115.68 L 882.54 111.34 C889.02,100.28 904.79,100.30 911.13,111.37 C913.45,115.42 913.51,116.07 913.80,145.19 C914.00,164.29 913.72,176.31 913.03,178.90 C911.77,183.57 907.95,188.46 903.93,190.54 ZM 544.56 440.25 L 544.49 440.41 C543.82,441.99 543.39,443.02 543.73,443.52 C544.35,444.43 547.58,443.57 556.73,441.13 L 557.23 440.99 C563.43,439.34 572.17,437.01 576.66,435.82 L 584.81 433.65 L 592.36 415.57 C610.22,372.82 610.95,370.88 609.19,371.43 C608.26,371.71 598.72,374.46 588.00,377.54 C577.28,380.61 567.99,383.78 567.37,384.59 C566.75,385.40 561.72,397.41 556.19,411.28 C550.66,425.15 545.43,438.19 544.56,440.25 ZM 469.48 500.90 C468.88,502.91 469.07,503.21 470.64,502.74 C474.20,501.70 524.08,483.03 525.86,482.07 C526.89,481.52 530.44,474.39 534.20,465.31 C541.63,447.36 542.46,444.99 541.32,445.04 C540.87,445.06 528.39,448.54 513.59,452.79 L 486.68 460.50 L 481.31 473.00 C478.35,479.88 474.65,488.42 473.06,492.00 C471.48,495.58 469.87,499.58 469.48,500.90 ZM 644.50 653.25 C643.85,654.83 641.90,655.00 623.89,655.00 C612.72,655.00 604.00,654.60 604.00,654.10 C604.00,653.60 606.98,644.60 610.62,634.10 L 617.24 615.00 L 637.12 615.00 C648.05,615.00 657.00,615.35 657.00,615.78 C657.00,616.56 645.88,649.89 644.50,653.25 ZM 592.98 320.25 C592.99,320.66 593.39,321.00 593.87,321.00 C594.92,321.00 637.13,308.23 637.48,307.80 C637.62,307.64 639.59,303.28 641.87,298.13 L 646.00 288.76 L 642.90 285.13 C636.07,277.12 620.16,266.00 615.53,266.00 C614.55,266.00 592.91,318.07 592.98,320.25 ZM 677.77 675.22 L 671.54 694.00 L 651.27 694.00 C640.12,694.00 631.00,693.62 631.00,693.16 C631.00,692.38 638.96,669.09 642.60,659.25 L 644.17 655.00 L 664.08 655.00 C675.04,655.00 684.00,655.32 684.00,655.72 C684.00,656.12 681.20,664.89 677.77,675.22 ZM 596.77 675.22 L 590.54 694.00 L 570.16 694.00 C554.29,694.00 549.88,693.72 550.23,692.75 C550.48,692.06 553.54,683.29 557.03,673.25 L 563.37 655.00 L 583.19 655.00 C594.08,655.00 603.00,655.32 603.00,655.72 C603.00,656.12 600.20,664.89 596.77,675.22 ZM 758.60 675.50 L 752.31 693.50 L 732.15 693.77 C721.07,693.92 712.00,693.65 712.00,693.18 C712.00,692.38 719.92,669.22 723.60,659.25 L 725.17 655.00 L 745.08 655.00 C760.38,655.00 764.99,655.29 764.95,656.25 C764.92,656.94 762.06,665.60 758.60,675.50 ZM 1003.12 470.12 C999.94,473.29 998.53,474.00 995.37,474.00 C993.24,473.99 990.01,473.08 988.19,471.97 C982.46,468.48 981.85,465.44 982.19,441.96 L 982.50 421.13 L 985.45 418.05 C991.30,411.95 999.83,412.15 1004.83,418.51 C1006.91,421.16 1007.00,422.20 1007.00,443.75 L 1007.00 466.24 ZM 870.39 471.91 C864.92,476.21 855.28,473.30 852.44,466.51 C851.35,463.91 851.00,458.26 851.00,443.48 C851.00,422.27 851.43,420.17 856.61,416.09 C859.86,413.54 867.49,413.25 870.78,415.56 C875.51,418.87 876.00,421.48 876.00,443.50 C876.00,465.81 875.61,467.80 870.39,471.91 ZM 974.00 440.00 L 974.00 454.00 L 884.00 454.00 L 884.00 440.00 L 974.00 440.00 ZM 506.00 346.41 C506.00,346.74 506.17,347.00 506.38,347.00 C507.00,347.00 539.36,336.98 539.55,336.73 C539.85,336.33 552.67,307.05 558.44,293.57 C561.48,286.46 563.81,280.48 563.62,280.29 C562.88,279.55 547.09,293.10 541.08,299.63 C530.45,311.18 506.00,343.79 506.00,346.41 ZM 779.98 614.25 C779.99,614.66 782.92,615.00 786.50,615.00 L 793.00 615.00 L 793.00 597.58 C793.00,588.00 793.27,579.45 793.61,578.58 C793.94,577.71 793.83,577.00 793.36,577.00 C792.61,577.00 779.94,612.29 779.98,614.25 Z" fill="rgb(3,3,2)"/>
<path d="M 659.70 310.00 C652.40,327.08 624.81,392.47 609.76,428.34 C625.24,391.44 652.48,326.87 660.04,309.17 C664.35,299.09 668.15,289.60 668.48,288.09 C669.23,284.69 663.95,276.40 655.33,267.44 C644.20,255.88 632.69,248.72 619.72,245.30 C604.20,241.21 582.58,244.30 565.35,253.07 C532.82,269.64 505.72,300.44 467.25,364.58 C453.78,387.03 453.95,386.73 434.70,423.00 C422.68,445.65 368.00,555.13 368.00,556.55 C368.00,556.82 364.01,565.24 359.12,575.27 C354.22,585.34 349.42,595.47 344.56,606.02 C346.61,601.35 348.00,597.91 348.00,597.42 C348.00,596.68 355.92,578.17 365.60,556.29 C375.28,534.41 387.48,506.83 392.71,495.00 C397.94,483.17 404.15,469.23 406.51,464.00 C408.87,458.77 414.85,445.27 419.79,434.00 C467.00,326.38 534.52,174.97 541.74,160.55 C563.18,117.73 595.04,91.02 635.00,82.39 C646.79,79.85 672.16,79.80 684.00,82.29 C718.39,89.55 745.45,108.52 766.56,140.18 C773.72,150.92 782.68,168.90 810.85,229.00 C821.29,251.27 836.88,284.35 845.50,302.50 C864.48,342.49 866.45,346.89 865.70,347.63 C865.02,348.31 834.92,359.72 804.00,371.01 C792.17,375.33 771.92,382.76 759.00,387.53 C746.08,392.30 732.44,397.26 728.69,398.56 L 721.88 400.92 L 719.08 394.71 C708.70,371.70 674.70,298.28 671.74,292.50 C669.23,287.61 669.15,287.55 668.18,290.00 C667.63,291.38 663.82,300.38 659.70,310.00 ZM 328.20 659.57 C355.05,619.23 390.92,587.32 435.96,563.74 C473.99,543.83 519.03,529.23 604.50,509.10 C659.76,496.09 713.02,480.18 760.50,462.51 C770.40,458.83 780.68,455.02 783.34,454.04 C786.90,452.74 789.76,450.52 794.07,445.74 C798.93,440.36 803.88,436.26 809.23,433.29 C799.84,438.63 791.36,447.35 786.51,456.99 C781.21,467.50 780.00,473.78 780.00,490.69 L 780.00 505.59 L 771.54 511.86 C736.35,537.92 683.56,563.14 622.58,583.02 C601.14,590.01 585.99,594.25 558.00,601.08 C544.53,604.37 532.23,607.39 530.67,607.78 C528.38,608.36 527.30,609.74 525.01,615.00 C523.45,618.58 514.54,637.92 505.20,658.00 L 488.22 694.50 L 397.72 694.76 C319.18,694.98 307.14,694.82 306.66,693.55 C306.35,692.75 308.94,685.89 312.42,678.30 C315.89,670.71 322.23,656.40 326.50,646.50 C327.94,643.17 329.64,639.30 331.40,635.30 C329.79,638.96 328.17,642.69 326.51,646.50 C321.74,657.50 315.69,671.22 313.06,677.00 C306.32,691.82 306.07,693.80 312.20,684.07 C315.11,679.43 322.31,668.41 328.20,659.57 ZM 1097.50 170.50 L 1098.10 252.00 L 837.37 252.00 L 835.55 248.25 C834.55,246.19 829.30,234.89 823.87,223.15 L 814.00 201.81 L 814.00 189.11 C814.00,168.85 818.09,157.99 828.93,149.41 C837.69,142.48 844.26,140.50 858.50,140.50 L 870.50 140.50 L 871.00 162.00 C871.41,179.73 871.80,184.05 873.21,186.62 C875.75,191.25 884.24,198.46 888.76,199.81 C898.89,202.84 909.61,199.78 916.33,191.93 C922.05,185.24 923.00,180.53 923.00,158.81 L 923.00 139.97 L 956.25 140.24 L 989.50 140.50 L 990.00 161.50 C990.55,184.52 990.88,185.95 997.36,192.84 C1002.68,198.49 1007.48,200.45 1016.00,200.45 C1024.95,200.45 1029.90,198.27 1035.34,191.92 C1041.21,185.05 1042.00,181.21 1042.00,159.32 L 1042.00 140.00 L 1051.79 140.00 C1073.36,140.00 1086.55,147.38 1094.34,163.82 ZM 973.26 300.17 C961.86,290.01 945.45,283.36 919.00,278.07 C911.03,276.47 897.97,274.45 890.00,273.57 C873.28,271.74 847.80,269.86 847.24,270.43 C846.95,270.72 847.44,272.00 848.18,273.40 C847.91,272.94 847.63,272.46 847.37,271.98 L 844.97 267.50 L 852.74 266.74 C867.91,265.24 928.95,268.19 953.42,271.60 C982.25,275.62 1000.10,280.52 1018.50,289.47 C1043.90,301.82 1054.13,315.86 1054.22,338.50 C1054.32,360.32 1044.73,380.98 1023.61,404.48 L 1016.90 411.96 L 1014.02 408.67 C1012.43,406.87 1008.74,404.08 1005.82,402.47 C993.14,395.50 978.72,400.88 971.56,415.26 C970.15,418.08 969.00,421.65 969.00,423.20 L 969.00 426.00 L 930.83 426.00 C909.84,426.00 892.85,425.83 893.08,425.61 C893.31,425.40 900.08,421.62 908.13,417.22 C951.79,393.32 982.67,367.09 992.71,345.38 C994.94,340.56 995.44,338.05 995.46,331.48 C995.50,324.40 995.12,322.68 992.22,316.80 C988.73,309.70 982.51,303.31 973.47,297.52 C966.64,293.15 962.42,291.09 966.50,294.11 C967.72,295.02 970.44,297.46 973.26,300.17 ZM 843.00 453.71 L 843.00 440.00 L 843.01 452.75 C843.02,464.16 843.28,466.05 845.46,470.74 C848.87,478.07 855.08,482.00 863.25,482.00 C869.73,482.00 873.19,480.59 877.14,476.34 C882.54,470.52 883.42,467.47 883.82,453.25 L 884.00 446.95 L 884.00 454.00 L 974.00 454.00 L 974.00 446.89 L 974.18 453.25 C974.59,467.74 975.82,471.67 981.66,477.19 C990.49,485.54 1005.34,483.09 1011.72,472.22 C1014.33,467.79 1014.52,466.67 1014.85,453.75 L 1015.00 447.62 L 1015.00 454.63 L 1022.56 454.82 C1030.94,455.03 1034.48,456.40 1038.29,460.93 C1039.06,461.85 1039.73,462.64 1040.31,463.50 C1043.13,467.64 1043.81,473.24 1043.87,502.00 L 815.00 502.00 L 815.02 656.50 L 817.38 661.50 C819.16,665.28 821.07,667.87 823.76,669.97 C820.88,667.78 818.86,664.96 816.80,660.49 L 814.50 655.50 L 814.50 469.34 L 817.54 464.42 C821.51,458.00 826.53,455.24 835.82,454.38 ZM 982.00 673.12 L 985.67 669.75 C992.48,663.49 993.31,660.85 993.96,643.50 C994.45,630.44 994.80,628.05 996.69,625.00 C1000.49,618.88 1002.82,618.15 1019.32,617.92 C1027.42,617.81 1033.85,617.52 1033.61,617.28 C1033.37,617.04 1035.00,615.19 1037.24,613.17 C1038.58,611.96 1039.65,611.06 1040.51,609.98 C1042.21,607.85 1043.08,605.06 1043.53,597.99 L 1043.50 605.60 L 1040.50 610.19 C1038.85,612.72 1030.94,621.92 1022.92,630.64 C1014.90,639.36 1003.61,651.67 997.84,658.00 C992.07,664.33 985.85,670.51 984.02,671.75 ZM 829.68 672.96 C834.92,673.80 850.55,673.93 905.77,673.96 L 980.70 674.00 L 905.81 674.00 C847.75,674.00 834.51,673.95 829.68,672.96 ZM 860.51 279.27 C862.37,279.63 864.40,280.02 866.50,280.41 C890.91,285.04 908.58,292.11 918.60,301.27 C908.57,292.10 890.84,285.01 866.50,280.44 C864.41,280.04 862.37,279.65 860.51,279.27 ZM 984.56 315.55 C987.04,324.10 985.79,332.89 980.69,342.11 C985.78,332.90 987.03,324.11 984.56,315.55 ZM 821.93 428.46 C824.64,427.84 827.47,427.42 830.46,427.17 C827.89,427.38 824.73,427.87 821.93,428.46 Z" fill="rgb(192,30,33)"/>
<path d="M 0.00 378.00 L 0.00 0.00 L 693.50 0.00 L 1387.00 0.00 L 1387.00 378.00 L 1387.00 756.00 L 693.50 756.00 L 0.00 756.00 L 0.00 378.00 ZM 1036.46 696.56 C1047.50,693.24 1057.83,683.16 1062.29,671.36 L 1064.50 665.50 L 1064.78 572.14 C1065.03,490.02 1064.87,478.04 1063.49,472.64 C1058.18,451.83 1043.10,440.00 1021.89,440.00 L 1015.19 440.00 L 1014.85 453.75 C1014.52,466.67 1014.33,467.79 1011.72,472.22 C1005.34,483.09 990.49,485.54 981.66,477.19 C975.82,471.67 974.59,467.74 974.18,453.25 L 973.80 440.00 L 929.00 440.00 L 884.20 440.00 L 883.82 453.25 C883.42,467.47 882.54,470.52 877.14,476.34 C873.19,480.59 869.73,482.00 863.25,482.00 C855.08,482.00 848.87,478.07 845.46,470.74 C843.28,466.05 843.02,464.16 843.01,452.75 L 843.00 440.00 L 836.89 440.00 C829.45,440.00 819.89,442.34 814.47,445.49 C808.50,448.95 801.27,457.20 797.91,464.38 C793.60,473.59 793.02,481.64 793.01,531.75 L 793.00 576.00 L 773.17 576.00 C762.26,576.00 753.08,575.74 752.76,575.43 C752.45,575.12 755.08,566.24 758.60,555.71 C762.12,545.18 765.00,536.23 765.00,535.83 C765.00,535.43 759.94,538.09 753.75,541.74 C747.56,545.39 736.65,551.42 729.50,555.13 L 716.50 561.88 L 713.98 568.69 L 711.45 575.50 L 697.48 576.00 C684.77,576.45 682.91,576.77 677.00,579.42 C673.42,581.02 669.96,582.82 669.31,583.42 C668.22,584.40 658.00,612.18 658.00,614.16 C658.00,614.62 666.97,615.00 677.93,615.00 L 697.86 615.00 L 699.77 609.75 C700.82,606.86 703.88,598.09 706.57,590.25 L 711.46 576.00 L 731.66 576.00 L 751.87 576.00 L 745.23 595.50 L 738.60 615.00 L 718.45 615.00 L 698.29 615.00 L 691.64 633.96 C687.99,644.39 685.00,653.39 685.00,653.96 C685.00,654.64 691.80,655.00 704.92,655.00 L 724.83 655.00 L 726.42 650.75 C727.30,648.41 730.37,639.53 733.26,631.00 L 738.50 615.50 L 758.75 615.23 C769.89,615.08 779.00,615.16 779.00,615.40 C779.00,615.64 776.08,624.25 772.50,634.54 C768.92,644.83 766.00,653.64 766.00,654.12 C766.00,654.60 772.24,655.00 779.86,655.00 L 793.73 655.00 L 794.26 661.59 C795.25,673.94 804.57,688.09 815.44,693.73 C823.27,697.80 823.74,697.82 929.59,697.91 C1015.70,697.99 1032.43,697.77 1036.46,696.56 ZM 505.20 658.00 C514.54,637.92 523.45,618.58 525.01,615.00 C527.30,609.74 528.38,608.36 530.67,607.78 C532.23,607.39 544.53,604.37 558.00,601.08 C585.99,594.25 601.14,590.01 622.58,583.02 C683.56,563.14 736.35,537.92 771.54,511.86 L 780.00 505.59 L 780.00 490.69 C780.00,473.78 781.21,467.50 786.51,456.99 C792.64,444.81 804.56,434.11 816.78,429.82 C819.88,428.73 826.04,427.53 830.46,427.17 L 838.50 426.50 L 839.13 421.31 C839.84,415.53 842.22,411.09 847.18,406.30 C851.74,401.91 856.83,400.00 864.01,400.00 C871.39,400.00 876.13,402.19 881.43,408.06 L 885.23 412.26 L 888.87 410.55 C898.14,406.18 923.49,392.04 932.50,386.21 C973.99,359.39 990.71,336.70 984.56,315.55 C983.16,310.74 981.71,308.58 976.18,303.04 C972.51,299.35 968.15,295.34 966.50,294.11 C962.42,291.09 966.64,293.15 973.47,297.52 C982.51,303.31 988.73,309.70 992.22,316.80 C995.12,322.68 995.50,324.40 995.46,331.48 C995.44,338.05 994.94,340.56 992.71,345.38 C982.67,367.09 951.79,393.32 908.13,417.22 C900.08,421.62 893.31,425.40 893.08,425.61 C892.85,425.83 909.84,426.00 930.83,426.00 L 969.00 426.00 L 969.00 423.20 C969.00,421.65 970.15,418.08 971.56,415.26 C978.72,400.88 993.14,395.50 1005.82,402.47 C1008.74,404.08 1012.43,406.87 1014.02,408.67 L 1016.90 411.96 L 1023.61 404.48 C1044.73,380.98 1054.32,360.32 1054.22,338.50 C1054.13,315.86 1043.90,301.82 1018.50,289.47 C1000.10,280.52 982.25,275.62 953.42,271.60 C928.95,268.19 867.91,265.24 852.74,266.74 L 844.97 267.50 L 847.37 271.98 C848.69,274.44 850.39,276.76 851.14,277.13 C851.89,277.50 858.80,278.99 866.50,280.44 C890.84,285.01 908.57,292.10 918.60,301.27 C935.69,316.88 925.98,334.71 890.00,353.81 C872.61,363.04 840.86,375.70 786.81,394.94 C774.54,399.30 750.33,407.92 733.00,414.08 C715.67,420.24 691.60,428.83 679.50,433.17 C667.40,437.50 652.55,442.79 646.50,444.91 C640.45,447.04 627.20,451.77 617.06,455.42 C606.92,459.08 598.07,461.94 597.41,461.79 C596.06,461.47 597.49,457.60 609.70,428.50 C624.72,392.66 652.39,327.11 659.70,310.00 C663.82,300.38 667.63,291.38 668.18,290.00 C669.15,287.55 669.23,287.61 671.74,292.50 C674.70,298.28 708.70,371.70 719.08,394.71 L 721.88 400.92 L 728.69 398.56 C732.44,397.26 746.08,392.30 759.00,387.53 C771.92,382.76 792.17,375.33 804.00,371.01 C834.92,359.72 865.02,348.31 865.70,347.63 C866.45,346.89 864.48,342.49 845.50,302.50 C836.88,284.35 821.29,251.27 810.85,229.00 C782.68,168.90 773.72,150.92 766.56,140.18 C745.45,108.52 718.39,89.55 684.00,82.29 C672.16,79.80 646.79,79.85 635.00,82.39 C595.04,91.02 563.18,117.73 541.74,160.55 C534.52,174.97 467.00,326.38 419.79,434.00 C414.85,445.27 408.87,458.77 406.51,464.00 C404.15,469.23 397.94,483.17 392.71,495.00 C387.48,506.83 375.28,534.41 365.60,556.29 C355.92,578.17 348.00,596.68 348.00,597.42 C348.00,598.15 344.91,605.44 341.14,613.63 C337.36,621.81 330.78,636.60 326.50,646.50 C322.23,656.40 315.89,670.71 312.42,678.30 C308.94,685.89 306.35,692.75 306.66,693.55 C307.14,694.82 319.18,694.98 397.72,694.76 L 488.22 694.50 L 505.20 658.00 ZM 596.77 675.22 C600.20,664.89 603.00,656.12 603.00,655.72 C603.00,655.32 594.08,655.00 583.19,655.00 L 563.37 655.00 L 557.03 673.25 C553.54,683.29 550.48,692.06 550.23,692.75 C549.88,693.72 554.29,694.00 570.16,694.00 L 590.54 694.00 L 596.77 675.22 ZM 677.77 675.22 C681.20,664.89 684.00,656.12 684.00,655.72 C684.00,655.32 675.04,655.00 664.08,655.00 L 644.17 655.00 L 642.60 659.25 C638.96,669.09 631.00,692.38 631.00,693.16 C631.00,693.62 640.12,694.00 651.27,694.00 L 671.54 694.00 L 677.77 675.22 ZM 758.60 675.50 C762.06,665.60 764.92,656.94 764.95,656.25 C764.99,655.29 760.38,655.00 745.08,655.00 L 725.17 655.00 L 723.60 659.25 C719.92,669.22 712.00,692.38 712.00,693.18 C712.00,693.65 721.07,693.92 732.15,693.77 L 752.31 693.50 L 758.60 675.50 ZM 644.50 653.25 C645.88,649.89 657.00,616.56 657.00,615.78 C657.00,615.35 648.05,615.00 637.12,615.00 L 617.24 615.00 L 610.62 634.10 C606.98,644.60 604.00,653.60 604.00,654.10 C604.00,654.60 612.72,655.00 623.89,655.00 C641.90,655.00 643.85,654.83 644.50,653.25 ZM 870.39 471.91 C875.61,467.80 876.00,465.81 876.00,443.50 C876.00,421.48 875.51,418.87 870.78,415.56 C867.49,413.25 859.86,413.54 856.61,416.09 C851.43,420.17 851.00,422.27 851.00,443.48 C851.00,458.26 851.35,463.91 852.44,466.51 C855.28,473.30 864.92,476.21 870.39,471.91 ZM 1003.12 470.12 L 1007.00 466.24 L 1007.00 443.75 C1007.00,422.20 1006.91,421.16 1004.83,418.51 C999.83,412.15 991.30,411.95 985.45,418.05 L 982.50 421.13 L 982.19 441.96 C981.85,465.44 982.46,468.48 988.19,471.97 C990.01,473.08 993.24,473.99 995.37,474.00 C998.53,474.00 999.94,473.29 1003.12,470.12 ZM 1073.74 438.44 C1080.32,427.48 1088.33,407.02 1091.93,391.95 C1097.32,369.39 1098.00,360.40 1098.00,311.45 L 1098.00 267.00 L 1041.25 267.07 L 984.50 267.15 L 993.00 269.49 C1035.35,281.18 1059.48,301.17 1065.49,329.53 C1071.08,355.95 1058.70,390.70 1033.38,419.65 C1030.42,423.04 1028.00,426.08 1028.00,426.40 C1028.00,426.73 1029.24,427.01 1030.75,427.01 C1039.74,427.05 1051.65,432.78 1060.77,441.45 C1064.47,444.97 1067.81,447.55 1068.20,447.18 C1068.58,446.80 1071.07,442.87 1073.74,438.44 ZM 1097.80 211.25 L 1097.50 170.50 L 1094.34 163.82 C1086.55,147.38 1073.36,140.00 1051.79,140.00 L 1042.00 140.00 L 1042.00 159.32 C1042.00,181.21 1041.21,185.05 1035.34,191.92 C1029.90,198.27 1024.95,200.45 1016.00,200.45 C1007.48,200.45 1002.68,198.49 997.36,192.84 C990.88,185.95 990.55,184.52 990.00,161.50 L 989.50 140.50 L 956.25 140.24 L 923.00 139.97 L 923.00 158.81 C923.00,180.53 922.05,185.24 916.33,191.93 C909.61,199.78 898.89,202.84 888.76,199.81 C884.24,198.46 875.75,191.25 873.21,186.62 C871.80,184.05 871.41,179.73 871.00,162.00 L 870.50 140.50 L 858.50 140.50 C844.26,140.50 837.69,142.48 828.93,149.41 C818.09,157.99 814.00,168.85 814.00,189.11 L 814.00 201.81 L 823.87 223.15 C829.30,234.89 834.55,246.19 835.55,248.25 L 837.37 252.00 L 967.74 252.00 L 1098.10 252.00 L 1097.80 211.25 ZM 903.93 190.54 C907.95,188.46 911.77,183.57 913.03,178.90 C913.72,176.31 914.00,164.29 913.80,145.19 C913.51,116.07 913.45,115.42 911.13,111.37 C904.79,100.30 889.02,100.28 882.54,111.34 L 880.00 115.68 L 880.00 146.77 C880.00,166.31 880.40,178.92 881.06,180.68 C884.44,189.63 896.03,194.62 903.93,190.54 ZM 1022.80 190.60 C1026.54,188.65 1029.62,185.15 1031.45,180.77 C1033.80,175.15 1033.74,118.37 1031.38,113.70 C1029.27,109.53 1026.16,106.15 1022.80,104.40 C1016.07,100.90 1005.30,104.49 1001.27,111.58 C999.09,115.41 999.03,116.25 999.02,147.30 C999.00,181.76 999.01,181.83 1004.66,187.19 C1009.70,191.97 1017.38,193.41 1022.80,190.60 ZM 827.50 672.34 C822.65,669.78 819.89,666.82 817.38,661.50 L 815.02 656.50 L 815.01 579.25 L 815.00 502.00 L 929.50 502.00 L 1044.00 502.00 L 1044.00 552.53 C1044.00,608.69 1044.20,606.89 1037.24,613.17 C1035.00,615.19 1033.37,617.04 1033.61,617.28 C1033.85,617.52 1027.42,617.81 1019.32,617.92 C1002.82,618.15 1000.49,618.88 996.69,625.00 C994.80,628.05 994.45,630.44 993.96,643.50 C993.31,660.85 992.48,663.49 985.67,669.75 L 981.04 674.00 L 905.77 673.96 C839.12,673.92 830.16,673.74 827.50,672.34 ZM 948.00 584.00 L 948.00 525.00 L 938.35 525.00 L 928.69 525.00 L 923.30 530.96 C917.41,537.47 905.72,544.20 898.05,545.49 C894.86,546.03 894.03,546.56 894.40,547.84 C894.66,548.75 895.62,553.33 896.54,558.00 C897.46,562.67 898.40,566.81 898.62,567.18 C899.34,568.38 914.42,563.74 921.25,560.22 C921.66,560.01 922.00,578.55 922.00,601.42 L 922.00 643.00 L 935.00 643.00 L 948.00 643.00 L 948.00 584.00 ZM 779.98 614.25 C779.94,612.29 792.61,577.00 793.36,577.00 C793.83,577.00 793.94,577.71 793.61,578.58 C793.27,579.45 793.00,588.00 793.00,597.58 L 793.00 615.00 L 786.50 615.00 C782.92,615.00 779.99,614.66 779.98,614.25 ZM 469.48 500.90 C469.87,499.58 471.48,495.58 473.06,492.00 C474.65,488.42 478.35,479.88 481.31,473.00 L 486.68 460.50 L 513.59 452.79 C528.39,448.54 540.87,445.06 541.32,445.04 C542.46,444.99 541.63,447.36 534.20,465.31 C530.44,474.39 526.89,481.52 525.86,482.07 C524.08,483.03 474.20,501.70 470.64,502.74 C469.07,503.21 468.88,502.91 469.48,500.90 ZM 432.00 474.49 C432.00,474.21 433.97,470.27 436.38,465.74 C438.78,461.21 445.98,447.56 452.36,435.41 L 463.97 413.32 L 486.74 406.65 C510.01,399.83 512.00,399.38 512.00,400.84 C512.00,401.82 490.85,450.42 487.97,456.06 C485.75,460.42 486.81,460.00 455.12,468.96 C433.60,475.04 432.00,475.42 432.00,474.49 ZM 544.56 440.25 C545.43,438.19 550.66,425.15 556.19,411.28 C561.72,397.41 566.75,385.40 567.37,384.59 C567.99,383.78 577.28,380.61 588.00,377.54 C598.72,374.46 608.26,371.71 609.19,371.43 C610.95,370.88 610.22,372.82 592.36,415.57 L 584.81 433.65 L 576.66 435.82 C572.17,437.01 563.43,439.34 557.23,440.99 C542.42,444.94 542.57,444.95 544.56,440.25 ZM 514.00 397.97 C514.00,396.64 516.71,390.16 528.85,362.52 L 539.82 337.55 L 564.66 329.79 C578.32,325.52 590.07,322.14 590.76,322.26 C591.60,322.42 588.81,330.39 582.45,346.00 C577.19,358.92 571.73,372.52 570.33,376.22 L 567.79 382.94 L 559.14 385.54 C554.39,386.96 545.55,389.65 539.50,391.51 C521.59,397.00 514.00,398.93 514.00,397.97 ZM 506.00 346.41 C506.00,343.79 530.45,311.18 541.08,299.63 C547.09,293.10 562.88,279.55 563.62,280.29 C563.81,280.48 561.48,286.46 558.44,293.57 C552.67,307.05 539.85,336.33 539.55,336.73 C539.36,336.98 507.00,347.00 506.38,347.00 C506.17,347.00 506.00,346.74 506.00,346.41 ZM 592.98 320.25 C592.91,318.07 614.55,266.00 615.53,266.00 C620.16,266.00 636.07,277.12 642.90,285.13 L 646.00 288.76 L 641.87 298.13 C639.59,303.28 637.62,307.64 637.48,307.80 C637.13,308.23 594.92,321.00 593.87,321.00 C593.39,321.00 592.99,320.66 592.98,320.25 Z" fill="rgb(252,252,251)"/>
</g>
</svg>